<?xml version="1.0" encoding="UTF-8"?>
<svg id="Capa_1" data-name="Capa 1" xmlns="http://www.w3.org/2000/svg" viewBox="0 0 30 30">
  <defs>
    <style>
      .cls-1 {
        fill: none;
        stroke: #fff;
        stroke-miterlimit: 10;
      }
    </style>
  </defs>
  <path class="cls-1" d="M28.09,15.44L16,2c-.51-.57-1.49-.57-2,0L1.91,15.44c-.36,.39-.45,.96-.23,1.45,.22,.49,.7,.8,1.23,.8h2.69v9.41c0,.74,.6,1.34,1.34,1.34h4.03c.74,0,1.34-.6,1.34-1.34v-5.38h5.38v5.38c0,.74,.6,1.34,1.34,1.34h4.03c.74,0,1.34-.6,1.34-1.34v-9.41h2.69c.74,0,1.34-.59,1.35-1.34,0-.34-.12-.66-.35-.91Z"/>
</svg>